<svg width="120" height="120" viewBox="0 0 120 120" fill="none" xmlns="http://www.w3.org/2000/svg">
<path fill-rule="evenodd" clip-rule="evenodd" d="M91.4062 0C108.75 0 120 11.25 120 28.5938V91.4062C120 108.75 108.75 120 91.4062 120H28.5938C11.25 120 0 108.75 0 91.4062V28.5938C0 11.25 11.25 0 28.5938 0H91.4062Z" fill="url(#paint0_linear_247_517)"/>
<path d="M32.6606 60.3211L54.289 73.5092L42.156 85.1147L20 66.1239L22.6376 41.8578L27.3853 35L30.5505 36.5826L30.5505 57.6147C29.0257 57.7137 28.2023 56.8939 26.5 58.1147V63.6147L33 68.7615H34.5069L27.5 63.1147V58.7156C29.6667 57.691 31.0667 59.4695 32.6606 60.3211Z" fill="white"/>
<path d="M86.6284 60.3211L65 73.5092L77.133 85.1147L99.2889 66.1239L96.6513 41.8578L91.9036 35L88.7385 36.5826V57.6147C90.2633 57.7137 91.0866 56.8939 92.7889 58.1147V63.6147L86.2889 68.7615H84.7821L91.7889 63.1147V58.7156C89.6222 57.691 88.2223 59.4695 86.6284 60.3211Z" fill="white"/>
<path d="M59 51L44 43V59L59 67V51Z" fill="white"/>
<path d="M60 51L75 43V59L60 67V51Z" fill="white"/>
<path d="M44 42L59.5 34L75 42L59.5 50L44 42Z" fill="white"/>
<defs>
<linearGradient id="paint0_linear_247_517" x1="0" y1="0" x2="0" y2="120" gradientUnits="userSpaceOnUse">
<stop stop-color="#7AB2B2"/>
<stop offset="0.654" stop-color="#2CB1A4"/>
<stop offset="1" stop-color="#2E9A8F"/>
</linearGradient>
</defs>
</svg>
